<mxfile host="Electron" agent="Mozilla/5.0 (X11; Linux x86_64) AppleWebKit/537.36 (KHTML, like Gecko) draw.io/27.0.9 Chrome/134.0.6998.205 Electron/35.4.0 Safari/537.36" version="27.0.9">
  <diagram name="Page-1" id="-qTIjDgO5tZ_FS6LQLZ2">
    <mxGraphModel dx="906" dy="556" grid="1" gridSize="10" guides="1" tooltips="1" connect="1" arrows="1" fold="1" page="1" pageScale="1" pageWidth="850" pageHeight="1100" math="0" shadow="0">
      <root>
        <mxCell id="0" />
        <mxCell id="1" parent="0" />
        <mxCell id="ipOgySFa7JEfcmdgoLGL-201" value="Addresse physique de sortie" style="edgeLabel;html=1;align=center;verticalAlign=middle;resizable=0;points=[];" vertex="1" connectable="0" parent="1">
          <mxGeometry x="210" y="570" as="geometry" />
        </mxCell>
        <mxCell id="ipOgySFa7JEfcmdgoLGL-47" value="" style="shape=table;startSize=0;container=1;collapsible=0;childLayout=tableLayout;fontSize=14;fillColor=#f5f5f5;fontColor=#333333;strokeColor=#666666;shadow=1;swimlaneLine=0;" vertex="1" parent="1">
          <mxGeometry x="200" y="540" width="320" height="20" as="geometry" />
        </mxCell>
        <mxCell id="ipOgySFa7JEfcmdgoLGL-48" value="" style="shape=tableRow;horizontal=0;startSize=0;swimlaneHead=0;swimlaneBody=0;strokeColor=#666666;top=0;left=0;bottom=0;right=0;collapsible=0;dropTarget=0;fillColor=#f5f5f5;points=[[0,0.5],[1,0.5]];portConstraint=eastwest;fontSize=14;fontColor=#333333;shadow=1;swimlaneLine=0;" vertex="1" parent="ipOgySFa7JEfcmdgoLGL-47">
          <mxGeometry width="320" height="20" as="geometry" />
        </mxCell>
        <mxCell id="ipOgySFa7JEfcmdgoLGL-49" value="1" style="shape=partialRectangle;html=1;whiteSpace=wrap;connectable=0;strokeColor=#666666;overflow=hidden;fillColor=#f5f5f5;top=1;left=1;bottom=1;right=1;pointerEvents=1;fontSize=14;fontColor=#333333;shadow=1;swimlaneLine=0;" vertex="1" parent="ipOgySFa7JEfcmdgoLGL-48">
          <mxGeometry width="20" height="20" as="geometry">
            <mxRectangle width="20" height="20" as="alternateBounds" />
          </mxGeometry>
        </mxCell>
        <mxCell id="ipOgySFa7JEfcmdgoLGL-50" value="0" style="shape=partialRectangle;html=1;whiteSpace=wrap;connectable=0;strokeColor=#666666;overflow=hidden;fillColor=#f5f5f5;top=1;left=1;bottom=1;right=1;pointerEvents=1;fontSize=14;fontColor=#333333;shadow=1;swimlaneLine=0;" vertex="1" parent="ipOgySFa7JEfcmdgoLGL-48">
          <mxGeometry x="20" width="20" height="20" as="geometry">
            <mxRectangle width="20" height="20" as="alternateBounds" />
          </mxGeometry>
        </mxCell>
        <mxCell id="ipOgySFa7JEfcmdgoLGL-51" value="1" style="shape=partialRectangle;html=1;whiteSpace=wrap;connectable=0;strokeColor=#666666;overflow=hidden;fillColor=#f5f5f5;top=1;left=1;bottom=1;right=1;pointerEvents=1;fontSize=14;fontColor=#333333;shadow=1;swimlaneLine=0;" vertex="1" parent="ipOgySFa7JEfcmdgoLGL-48">
          <mxGeometry x="40" width="20" height="20" as="geometry">
            <mxRectangle width="20" height="20" as="alternateBounds" />
          </mxGeometry>
        </mxCell>
        <mxCell id="ipOgySFa7JEfcmdgoLGL-52" value="0" style="shape=partialRectangle;html=1;whiteSpace=wrap;connectable=0;strokeColor=#666666;overflow=hidden;fillColor=#f5f5f5;top=1;left=1;bottom=1;right=1;pointerEvents=1;fontSize=14;fontColor=#333333;shadow=1;swimlaneLine=0;" vertex="1" parent="ipOgySFa7JEfcmdgoLGL-48">
          <mxGeometry x="60" width="20" height="20" as="geometry">
            <mxRectangle width="20" height="20" as="alternateBounds" />
          </mxGeometry>
        </mxCell>
        <mxCell id="ipOgySFa7JEfcmdgoLGL-53" value="0" style="shape=partialRectangle;html=1;whiteSpace=wrap;connectable=0;strokeColor=#666666;overflow=hidden;fillColor=#f5f5f5;top=1;left=1;bottom=1;right=1;pointerEvents=1;fontSize=14;fontColor=#333333;shadow=1;swimlaneLine=0;" vertex="1" parent="ipOgySFa7JEfcmdgoLGL-48">
          <mxGeometry x="80" width="20" height="20" as="geometry">
            <mxRectangle width="20" height="20" as="alternateBounds" />
          </mxGeometry>
        </mxCell>
        <mxCell id="ipOgySFa7JEfcmdgoLGL-54" value="1" style="shape=partialRectangle;html=1;whiteSpace=wrap;connectable=0;strokeColor=#666666;overflow=hidden;fillColor=#f5f5f5;top=1;left=1;bottom=1;right=1;pointerEvents=1;fontSize=14;fontColor=#333333;shadow=1;swimlaneLine=0;" vertex="1" parent="ipOgySFa7JEfcmdgoLGL-48">
          <mxGeometry x="100" width="20" height="20" as="geometry">
            <mxRectangle width="20" height="20" as="alternateBounds" />
          </mxGeometry>
        </mxCell>
        <mxCell id="ipOgySFa7JEfcmdgoLGL-55" value="0" style="shape=partialRectangle;html=1;whiteSpace=wrap;connectable=0;strokeColor=#666666;overflow=hidden;fillColor=#f5f5f5;top=1;left=1;bottom=1;right=1;pointerEvents=1;fontSize=14;fontColor=#333333;shadow=1;swimlaneLine=0;" vertex="1" parent="ipOgySFa7JEfcmdgoLGL-48">
          <mxGeometry x="120" width="20" height="20" as="geometry">
            <mxRectangle width="20" height="20" as="alternateBounds" />
          </mxGeometry>
        </mxCell>
        <mxCell id="ipOgySFa7JEfcmdgoLGL-56" value="0" style="shape=partialRectangle;html=1;whiteSpace=wrap;connectable=0;strokeColor=#666666;overflow=hidden;fillColor=#f5f5f5;top=1;left=1;bottom=1;right=1;pointerEvents=1;fontSize=14;fontColor=#333333;shadow=1;swimlaneLine=0;" vertex="1" parent="ipOgySFa7JEfcmdgoLGL-48">
          <mxGeometry x="140" width="20" height="20" as="geometry">
            <mxRectangle width="20" height="20" as="alternateBounds" />
          </mxGeometry>
        </mxCell>
        <mxCell id="ipOgySFa7JEfcmdgoLGL-57" value="1" style="shape=partialRectangle;html=1;whiteSpace=wrap;connectable=0;strokeColor=#666666;overflow=hidden;fillColor=#f5f5f5;top=1;left=1;bottom=1;right=1;pointerEvents=1;fontSize=14;fontColor=#333333;shadow=1;swimlaneLine=0;" vertex="1" parent="ipOgySFa7JEfcmdgoLGL-48">
          <mxGeometry x="160" width="20" height="20" as="geometry">
            <mxRectangle width="20" height="20" as="alternateBounds" />
          </mxGeometry>
        </mxCell>
        <mxCell id="ipOgySFa7JEfcmdgoLGL-58" value="1" style="shape=partialRectangle;html=1;whiteSpace=wrap;connectable=0;strokeColor=#666666;overflow=hidden;fillColor=#f5f5f5;top=1;left=1;bottom=1;right=1;pointerEvents=1;fontSize=14;fontColor=#333333;shadow=1;swimlaneLine=0;" vertex="1" parent="ipOgySFa7JEfcmdgoLGL-48">
          <mxGeometry x="180" width="20" height="20" as="geometry">
            <mxRectangle width="20" height="20" as="alternateBounds" />
          </mxGeometry>
        </mxCell>
        <mxCell id="ipOgySFa7JEfcmdgoLGL-59" value="0" style="shape=partialRectangle;html=1;whiteSpace=wrap;connectable=0;strokeColor=#666666;overflow=hidden;fillColor=#f5f5f5;top=1;left=1;bottom=1;right=1;pointerEvents=1;fontSize=14;fontColor=#333333;shadow=1;swimlaneLine=0;" vertex="1" parent="ipOgySFa7JEfcmdgoLGL-48">
          <mxGeometry x="200" width="20" height="20" as="geometry">
            <mxRectangle width="20" height="20" as="alternateBounds" />
          </mxGeometry>
        </mxCell>
        <mxCell id="ipOgySFa7JEfcmdgoLGL-60" value="0" style="shape=partialRectangle;html=1;whiteSpace=wrap;connectable=0;strokeColor=#666666;overflow=hidden;fillColor=#f5f5f5;top=1;left=1;bottom=1;right=1;pointerEvents=1;fontSize=14;fontColor=#333333;shadow=1;swimlaneLine=0;" vertex="1" parent="ipOgySFa7JEfcmdgoLGL-48">
          <mxGeometry x="220" width="20" height="20" as="geometry">
            <mxRectangle width="20" height="20" as="alternateBounds" />
          </mxGeometry>
        </mxCell>
        <mxCell id="ipOgySFa7JEfcmdgoLGL-61" value="0" style="shape=partialRectangle;html=1;whiteSpace=wrap;connectable=0;strokeColor=#666666;overflow=hidden;fillColor=#f5f5f5;top=1;left=1;bottom=1;right=1;pointerEvents=1;fontSize=14;fontColor=#333333;shadow=1;swimlaneLine=0;" vertex="1" parent="ipOgySFa7JEfcmdgoLGL-48">
          <mxGeometry x="240" width="20" height="20" as="geometry">
            <mxRectangle width="20" height="20" as="alternateBounds" />
          </mxGeometry>
        </mxCell>
        <mxCell id="ipOgySFa7JEfcmdgoLGL-62" value="1" style="shape=partialRectangle;html=1;whiteSpace=wrap;connectable=0;strokeColor=#666666;overflow=hidden;fillColor=#f5f5f5;top=1;left=1;bottom=1;right=1;pointerEvents=1;fontSize=14;fontColor=#333333;shadow=1;swimlaneLine=0;" vertex="1" parent="ipOgySFa7JEfcmdgoLGL-48">
          <mxGeometry x="260" width="20" height="20" as="geometry">
            <mxRectangle width="20" height="20" as="alternateBounds" />
          </mxGeometry>
        </mxCell>
        <mxCell id="ipOgySFa7JEfcmdgoLGL-63" value="1" style="shape=partialRectangle;html=1;whiteSpace=wrap;connectable=0;strokeColor=#666666;overflow=hidden;fillColor=#f5f5f5;top=1;left=1;bottom=1;right=1;pointerEvents=1;fontSize=14;fontColor=#333333;shadow=1;swimlaneLine=0;" vertex="1" parent="ipOgySFa7JEfcmdgoLGL-48">
          <mxGeometry x="280" width="20" height="20" as="geometry">
            <mxRectangle width="20" height="20" as="alternateBounds" />
          </mxGeometry>
        </mxCell>
        <mxCell id="ipOgySFa7JEfcmdgoLGL-64" value="0" style="shape=partialRectangle;html=1;whiteSpace=wrap;connectable=0;strokeColor=#666666;overflow=hidden;fillColor=#f5f5f5;top=1;left=1;bottom=1;right=1;pointerEvents=1;fontSize=14;fontColor=#333333;shadow=1;swimlaneLine=0;" vertex="1" parent="ipOgySFa7JEfcmdgoLGL-48">
          <mxGeometry x="300" width="20" height="20" as="geometry">
            <mxRectangle width="20" height="20" as="alternateBounds" />
          </mxGeometry>
        </mxCell>
        <mxCell id="ipOgySFa7JEfcmdgoLGL-65" value="" style="shape=table;startSize=0;container=1;collapsible=0;childLayout=tableLayout;fontSize=14;fillColor=none;fontColor=#333333;strokeColor=none;swimlaneLine=0;rowLines=0;columnLines=0;align=right;resizeWidth=1;" vertex="1" parent="1">
          <mxGeometry x="260" y="170" width="90" height="320" as="geometry" />
        </mxCell>
        <mxCell id="ipOgySFa7JEfcmdgoLGL-66" value="" style="shape=tableRow;horizontal=0;startSize=0;swimlaneHead=0;swimlaneBody=0;strokeColor=#666666;top=0;left=0;bottom=0;right=0;collapsible=0;dropTarget=0;fillColor=none;points=[[0,0.5],[1,0.5]];portConstraint=eastwest;fontSize=14;fontColor=#333333;align=right;" vertex="1" parent="ipOgySFa7JEfcmdgoLGL-65">
          <mxGeometry width="90" height="20" as="geometry" />
        </mxCell>
        <mxCell id="ipOgySFa7JEfcmdgoLGL-67" value="15" style="shape=partialRectangle;html=1;whiteSpace=wrap;connectable=0;strokeColor=inherit;overflow=hidden;fillColor=none;top=0;left=0;bottom=0;right=0;pointerEvents=1;fontSize=14;fontColor=#333333;align=right;" vertex="1" parent="ipOgySFa7JEfcmdgoLGL-66">
          <mxGeometry width="20" height="20" as="geometry">
            <mxRectangle width="20" height="20" as="alternateBounds" />
          </mxGeometry>
        </mxCell>
        <mxCell id="ipOgySFa7JEfcmdgoLGL-68" value="0000" style="shape=partialRectangle;html=1;whiteSpace=wrap;connectable=0;overflow=hidden;top=1;left=1;bottom=1;right=1;pointerEvents=1;fontSize=14;fillColor=#f5f5f5;fontColor=#333333;strokeColor=#666666;align=center;autosize=0;autosizeGrid=1;shadow=1;" vertex="1" parent="ipOgySFa7JEfcmdgoLGL-66">
          <mxGeometry x="20" width="50" height="20" as="geometry">
            <mxRectangle width="50" height="20" as="alternateBounds" />
          </mxGeometry>
        </mxCell>
        <mxCell id="ipOgySFa7JEfcmdgoLGL-83" value="0" style="shape=partialRectangle;html=1;whiteSpace=wrap;connectable=1;overflow=hidden;top=1;left=1;bottom=1;right=1;pointerEvents=1;fontSize=14;fillColor=#f5f5f5;fontColor=#333333;strokeColor=#666666;align=center;shadow=1;" vertex="1" parent="ipOgySFa7JEfcmdgoLGL-66">
          <mxGeometry x="70" width="20" height="20" as="geometry">
            <mxRectangle width="20" height="20" as="alternateBounds" />
          </mxGeometry>
        </mxCell>
        <mxCell id="ipOgySFa7JEfcmdgoLGL-144" style="shape=tableRow;horizontal=0;startSize=0;swimlaneHead=0;swimlaneBody=0;strokeColor=#666666;top=0;left=0;bottom=0;right=0;collapsible=0;dropTarget=0;fillColor=none;points=[[0,0.5],[1,0.5]];portConstraint=eastwest;fontSize=14;fontColor=#333333;align=right;" vertex="1" parent="ipOgySFa7JEfcmdgoLGL-65">
          <mxGeometry y="20" width="90" height="20" as="geometry" />
        </mxCell>
        <mxCell id="ipOgySFa7JEfcmdgoLGL-145" value="14" style="shape=partialRectangle;html=1;whiteSpace=wrap;connectable=0;strokeColor=inherit;overflow=hidden;fillColor=none;top=0;left=0;bottom=0;right=0;pointerEvents=1;fontSize=14;fontColor=#333333;align=right;" vertex="1" parent="ipOgySFa7JEfcmdgoLGL-144">
          <mxGeometry width="20" height="20" as="geometry">
            <mxRectangle width="20" height="20" as="alternateBounds" />
          </mxGeometry>
        </mxCell>
        <mxCell id="ipOgySFa7JEfcmdgoLGL-146" value="0000" style="shape=partialRectangle;html=1;whiteSpace=wrap;connectable=0;overflow=hidden;top=1;left=1;bottom=1;right=1;pointerEvents=1;fontSize=14;fillColor=#f5f5f5;fontColor=#333333;strokeColor=#666666;align=center;autosize=0;autosizeGrid=1;shadow=1;" vertex="1" parent="ipOgySFa7JEfcmdgoLGL-144">
          <mxGeometry x="20" width="50" height="20" as="geometry">
            <mxRectangle width="50" height="20" as="alternateBounds" />
          </mxGeometry>
        </mxCell>
        <mxCell id="ipOgySFa7JEfcmdgoLGL-147" value="0" style="shape=partialRectangle;html=1;whiteSpace=wrap;connectable=0;overflow=hidden;top=1;left=1;bottom=1;right=1;pointerEvents=1;fontSize=14;fillColor=#f5f5f5;fontColor=#333333;strokeColor=#666666;align=center;shadow=1;" vertex="1" parent="ipOgySFa7JEfcmdgoLGL-144">
          <mxGeometry x="70" width="20" height="20" as="geometry">
            <mxRectangle width="20" height="20" as="alternateBounds" />
          </mxGeometry>
        </mxCell>
        <mxCell id="ipOgySFa7JEfcmdgoLGL-140" style="shape=tableRow;horizontal=0;startSize=0;swimlaneHead=0;swimlaneBody=0;strokeColor=#666666;top=0;left=0;bottom=0;right=0;collapsible=0;dropTarget=0;fillColor=none;points=[[0,0.5],[1,0.5]];portConstraint=eastwest;fontSize=14;fontColor=#333333;align=right;" vertex="1" parent="ipOgySFa7JEfcmdgoLGL-65">
          <mxGeometry y="40" width="90" height="20" as="geometry" />
        </mxCell>
        <mxCell id="ipOgySFa7JEfcmdgoLGL-141" value="13" style="shape=partialRectangle;html=1;whiteSpace=wrap;connectable=0;strokeColor=inherit;overflow=hidden;fillColor=none;top=0;left=0;bottom=0;right=0;pointerEvents=1;fontSize=14;fontColor=#333333;align=right;" vertex="1" parent="ipOgySFa7JEfcmdgoLGL-140">
          <mxGeometry width="20" height="20" as="geometry">
            <mxRectangle width="20" height="20" as="alternateBounds" />
          </mxGeometry>
        </mxCell>
        <mxCell id="ipOgySFa7JEfcmdgoLGL-142" value="0100" style="shape=partialRectangle;html=1;whiteSpace=wrap;connectable=0;overflow=hidden;top=1;left=1;bottom=1;right=1;pointerEvents=1;fontSize=14;fillColor=#f5f5f5;fontColor=#333333;strokeColor=#666666;align=center;autosize=0;autosizeGrid=1;shadow=1;" vertex="1" parent="ipOgySFa7JEfcmdgoLGL-140">
          <mxGeometry x="20" width="50" height="20" as="geometry">
            <mxRectangle width="50" height="20" as="alternateBounds" />
          </mxGeometry>
        </mxCell>
        <mxCell id="ipOgySFa7JEfcmdgoLGL-143" value="1" style="shape=partialRectangle;html=1;whiteSpace=wrap;connectable=0;overflow=hidden;top=1;left=1;bottom=1;right=1;pointerEvents=1;fontSize=14;fillColor=#f5f5f5;fontColor=#333333;strokeColor=#666666;align=center;shadow=1;" vertex="1" parent="ipOgySFa7JEfcmdgoLGL-140">
          <mxGeometry x="70" width="20" height="20" as="geometry">
            <mxRectangle width="20" height="20" as="alternateBounds" />
          </mxGeometry>
        </mxCell>
        <mxCell id="ipOgySFa7JEfcmdgoLGL-136" style="shape=tableRow;horizontal=0;startSize=0;swimlaneHead=0;swimlaneBody=0;strokeColor=#666666;top=0;left=0;bottom=0;right=0;collapsible=0;dropTarget=0;fillColor=none;points=[[0,0.5],[1,0.5]];portConstraint=eastwest;fontSize=14;fontColor=#333333;align=right;" vertex="1" parent="ipOgySFa7JEfcmdgoLGL-65">
          <mxGeometry y="60" width="90" height="20" as="geometry" />
        </mxCell>
        <mxCell id="ipOgySFa7JEfcmdgoLGL-137" value="12" style="shape=partialRectangle;html=1;whiteSpace=wrap;connectable=0;strokeColor=inherit;overflow=hidden;fillColor=none;top=0;left=0;bottom=0;right=0;pointerEvents=1;fontSize=14;fontColor=#333333;align=right;" vertex="1" parent="ipOgySFa7JEfcmdgoLGL-136">
          <mxGeometry width="20" height="20" as="geometry">
            <mxRectangle width="20" height="20" as="alternateBounds" />
          </mxGeometry>
        </mxCell>
        <mxCell id="ipOgySFa7JEfcmdgoLGL-138" value="0000" style="shape=partialRectangle;html=1;whiteSpace=wrap;connectable=0;overflow=hidden;top=1;left=1;bottom=1;right=1;pointerEvents=1;fontSize=14;fillColor=#f5f5f5;fontColor=#333333;strokeColor=#666666;align=center;autosize=0;autosizeGrid=1;shadow=1;" vertex="1" parent="ipOgySFa7JEfcmdgoLGL-136">
          <mxGeometry x="20" width="50" height="20" as="geometry">
            <mxRectangle width="50" height="20" as="alternateBounds" />
          </mxGeometry>
        </mxCell>
        <mxCell id="ipOgySFa7JEfcmdgoLGL-139" value="0" style="shape=partialRectangle;html=1;whiteSpace=wrap;connectable=0;overflow=hidden;top=1;left=1;bottom=1;right=1;pointerEvents=1;fontSize=14;fillColor=#f5f5f5;fontColor=#333333;strokeColor=#666666;align=center;shadow=1;" vertex="1" parent="ipOgySFa7JEfcmdgoLGL-136">
          <mxGeometry x="70" width="20" height="20" as="geometry">
            <mxRectangle width="20" height="20" as="alternateBounds" />
          </mxGeometry>
        </mxCell>
        <mxCell id="ipOgySFa7JEfcmdgoLGL-132" style="shape=tableRow;horizontal=0;startSize=0;swimlaneHead=0;swimlaneBody=0;strokeColor=#666666;top=0;left=0;bottom=0;right=0;collapsible=0;dropTarget=0;fillColor=none;points=[[0,0.5],[1,0.5]];portConstraint=eastwest;fontSize=14;fontColor=#333333;align=right;" vertex="1" parent="ipOgySFa7JEfcmdgoLGL-65">
          <mxGeometry y="80" width="90" height="20" as="geometry" />
        </mxCell>
        <mxCell id="ipOgySFa7JEfcmdgoLGL-133" value="11" style="shape=partialRectangle;html=1;whiteSpace=wrap;connectable=0;strokeColor=inherit;overflow=hidden;fillColor=none;top=0;left=0;bottom=0;right=0;pointerEvents=1;fontSize=14;fontColor=#333333;align=right;" vertex="1" parent="ipOgySFa7JEfcmdgoLGL-132">
          <mxGeometry width="20" height="20" as="geometry">
            <mxRectangle width="20" height="20" as="alternateBounds" />
          </mxGeometry>
        </mxCell>
        <mxCell id="ipOgySFa7JEfcmdgoLGL-134" value="0000" style="shape=partialRectangle;html=1;whiteSpace=wrap;connectable=0;overflow=hidden;top=1;left=1;bottom=1;right=1;pointerEvents=1;fontSize=14;fillColor=#f5f5f5;fontColor=#333333;strokeColor=#666666;align=center;autosize=0;autosizeGrid=1;shadow=1;" vertex="1" parent="ipOgySFa7JEfcmdgoLGL-132">
          <mxGeometry x="20" width="50" height="20" as="geometry">
            <mxRectangle width="50" height="20" as="alternateBounds" />
          </mxGeometry>
        </mxCell>
        <mxCell id="ipOgySFa7JEfcmdgoLGL-135" value="1" style="shape=partialRectangle;html=1;whiteSpace=wrap;connectable=0;overflow=hidden;top=1;left=1;bottom=1;right=1;pointerEvents=1;fontSize=14;fillColor=#f5f5f5;fontColor=#333333;strokeColor=#666666;align=center;shadow=1;" vertex="1" parent="ipOgySFa7JEfcmdgoLGL-132">
          <mxGeometry x="70" width="20" height="20" as="geometry">
            <mxRectangle width="20" height="20" as="alternateBounds" />
          </mxGeometry>
        </mxCell>
        <mxCell id="ipOgySFa7JEfcmdgoLGL-128" style="shape=tableRow;horizontal=0;startSize=0;swimlaneHead=0;swimlaneBody=0;strokeColor=#666666;top=0;left=0;bottom=0;right=0;collapsible=0;dropTarget=0;fillColor=none;points=[[0,0.5],[1,0.5]];portConstraint=eastwest;fontSize=14;fontColor=#333333;swimlaneLine=0;align=right;" vertex="1" parent="ipOgySFa7JEfcmdgoLGL-65">
          <mxGeometry y="100" width="90" height="20" as="geometry" />
        </mxCell>
        <mxCell id="ipOgySFa7JEfcmdgoLGL-129" value="10" style="shape=partialRectangle;html=1;whiteSpace=wrap;connectable=0;strokeColor=inherit;overflow=hidden;fillColor=none;top=0;left=0;bottom=0;right=0;pointerEvents=1;fontSize=14;fontColor=#333333;align=right;" vertex="1" parent="ipOgySFa7JEfcmdgoLGL-128">
          <mxGeometry width="20" height="20" as="geometry">
            <mxRectangle width="20" height="20" as="alternateBounds" />
          </mxGeometry>
        </mxCell>
        <mxCell id="ipOgySFa7JEfcmdgoLGL-130" value="0001" style="shape=partialRectangle;html=1;whiteSpace=wrap;connectable=0;overflow=hidden;top=1;left=1;bottom=1;right=1;pointerEvents=1;fontSize=14;fillColor=#f5f5f5;fontColor=#333333;strokeColor=#666666;align=center;autosize=0;autosizeGrid=1;shadow=1;" vertex="1" parent="ipOgySFa7JEfcmdgoLGL-128">
          <mxGeometry x="20" width="50" height="20" as="geometry">
            <mxRectangle width="50" height="20" as="alternateBounds" />
          </mxGeometry>
        </mxCell>
        <mxCell id="ipOgySFa7JEfcmdgoLGL-131" value="1" style="shape=partialRectangle;html=1;whiteSpace=wrap;connectable=0;overflow=hidden;top=1;left=1;bottom=1;right=1;pointerEvents=1;fontSize=14;fillColor=#f5f5f5;fontColor=#333333;strokeColor=#666666;align=center;shadow=1;" vertex="1" parent="ipOgySFa7JEfcmdgoLGL-128">
          <mxGeometry x="70" width="20" height="20" as="geometry">
            <mxRectangle width="20" height="20" as="alternateBounds" />
          </mxGeometry>
        </mxCell>
        <mxCell id="ipOgySFa7JEfcmdgoLGL-124" style="shape=tableRow;horizontal=0;startSize=0;swimlaneHead=0;swimlaneBody=0;strokeColor=#666666;top=0;left=0;bottom=0;right=0;collapsible=0;dropTarget=0;fillColor=none;points=[[0,0.5],[1,0.5]];portConstraint=eastwest;fontSize=14;fontColor=#333333;align=right;" vertex="1" parent="ipOgySFa7JEfcmdgoLGL-65">
          <mxGeometry y="120" width="90" height="20" as="geometry" />
        </mxCell>
        <mxCell id="ipOgySFa7JEfcmdgoLGL-125" value="9" style="shape=partialRectangle;html=1;whiteSpace=wrap;connectable=0;strokeColor=inherit;overflow=hidden;fillColor=none;top=0;left=0;bottom=0;right=0;pointerEvents=1;fontSize=14;fontColor=#333333;align=right;" vertex="1" parent="ipOgySFa7JEfcmdgoLGL-124">
          <mxGeometry width="20" height="20" as="geometry">
            <mxRectangle width="20" height="20" as="alternateBounds" />
          </mxGeometry>
        </mxCell>
        <mxCell id="ipOgySFa7JEfcmdgoLGL-126" value="0010" style="shape=partialRectangle;html=1;whiteSpace=wrap;connectable=0;overflow=hidden;top=1;left=1;bottom=1;right=1;pointerEvents=1;fontSize=14;fillColor=#f5f5f5;fontColor=#333333;strokeColor=#666666;align=center;autosize=0;autosizeGrid=1;shadow=1;" vertex="1" parent="ipOgySFa7JEfcmdgoLGL-124">
          <mxGeometry x="20" width="50" height="20" as="geometry">
            <mxRectangle width="50" height="20" as="alternateBounds" />
          </mxGeometry>
        </mxCell>
        <mxCell id="ipOgySFa7JEfcmdgoLGL-127" value="1" style="shape=partialRectangle;html=1;whiteSpace=wrap;connectable=0;overflow=hidden;top=1;left=1;bottom=1;right=1;pointerEvents=1;fontSize=14;fillColor=#f5f5f5;fontColor=#333333;strokeColor=#666666;align=center;shadow=1;" vertex="1" parent="ipOgySFa7JEfcmdgoLGL-124">
          <mxGeometry x="70" width="20" height="20" as="geometry">
            <mxRectangle width="20" height="20" as="alternateBounds" />
          </mxGeometry>
        </mxCell>
        <mxCell id="ipOgySFa7JEfcmdgoLGL-120" style="shape=tableRow;horizontal=0;startSize=0;swimlaneHead=0;swimlaneBody=0;strokeColor=#666666;top=0;left=0;bottom=0;right=0;collapsible=0;dropTarget=0;fillColor=none;points=[[0,0.5],[1,0.5]];portConstraint=eastwest;fontSize=14;fontColor=#333333;align=right;" vertex="1" parent="ipOgySFa7JEfcmdgoLGL-65">
          <mxGeometry y="140" width="90" height="20" as="geometry" />
        </mxCell>
        <mxCell id="ipOgySFa7JEfcmdgoLGL-121" value="8" style="shape=partialRectangle;html=1;whiteSpace=wrap;connectable=0;strokeColor=inherit;overflow=hidden;fillColor=none;top=0;left=0;bottom=0;right=0;pointerEvents=1;fontSize=14;fontColor=#333333;align=right;" vertex="1" parent="ipOgySFa7JEfcmdgoLGL-120">
          <mxGeometry width="20" height="20" as="geometry">
            <mxRectangle width="20" height="20" as="alternateBounds" />
          </mxGeometry>
        </mxCell>
        <mxCell id="ipOgySFa7JEfcmdgoLGL-122" value="0000" style="shape=partialRectangle;html=1;whiteSpace=wrap;connectable=0;overflow=hidden;top=1;left=1;bottom=1;right=1;pointerEvents=1;fontSize=14;fillColor=#f5f5f5;fontColor=#333333;strokeColor=#666666;align=center;autosize=0;autosizeGrid=1;shadow=1;" vertex="1" parent="ipOgySFa7JEfcmdgoLGL-120">
          <mxGeometry x="20" width="50" height="20" as="geometry">
            <mxRectangle width="50" height="20" as="alternateBounds" />
          </mxGeometry>
        </mxCell>
        <mxCell id="ipOgySFa7JEfcmdgoLGL-123" value="0" style="shape=partialRectangle;html=1;whiteSpace=wrap;connectable=0;overflow=hidden;top=1;left=1;bottom=1;right=1;pointerEvents=1;fontSize=14;fillColor=#f5f5f5;fontColor=#333333;strokeColor=#666666;align=center;shadow=1;" vertex="1" parent="ipOgySFa7JEfcmdgoLGL-120">
          <mxGeometry x="70" width="20" height="20" as="geometry">
            <mxRectangle width="20" height="20" as="alternateBounds" />
          </mxGeometry>
        </mxCell>
        <mxCell id="ipOgySFa7JEfcmdgoLGL-116" style="shape=tableRow;horizontal=0;startSize=0;swimlaneHead=0;swimlaneBody=0;strokeColor=#666666;top=0;left=0;bottom=0;right=0;collapsible=0;dropTarget=0;fillColor=none;points=[[0,0.5],[1,0.5]];portConstraint=eastwest;fontSize=14;fontColor=#333333;align=right;" vertex="1" parent="ipOgySFa7JEfcmdgoLGL-65">
          <mxGeometry y="160" width="90" height="20" as="geometry" />
        </mxCell>
        <mxCell id="ipOgySFa7JEfcmdgoLGL-117" value="7" style="shape=partialRectangle;html=1;whiteSpace=wrap;connectable=0;strokeColor=inherit;overflow=hidden;fillColor=none;top=0;left=0;bottom=0;right=0;pointerEvents=1;fontSize=14;fontColor=#333333;align=right;" vertex="1" parent="ipOgySFa7JEfcmdgoLGL-116">
          <mxGeometry width="20" height="20" as="geometry">
            <mxRectangle width="20" height="20" as="alternateBounds" />
          </mxGeometry>
        </mxCell>
        <mxCell id="ipOgySFa7JEfcmdgoLGL-118" value="0000" style="shape=partialRectangle;html=1;whiteSpace=wrap;connectable=0;overflow=hidden;top=1;left=1;bottom=1;right=1;pointerEvents=1;fontSize=14;fillColor=#f5f5f5;fontColor=#333333;strokeColor=#666666;align=center;autosize=0;autosizeGrid=1;shadow=1;" vertex="1" parent="ipOgySFa7JEfcmdgoLGL-116">
          <mxGeometry x="20" width="50" height="20" as="geometry">
            <mxRectangle width="50" height="20" as="alternateBounds" />
          </mxGeometry>
        </mxCell>
        <mxCell id="ipOgySFa7JEfcmdgoLGL-119" value="0" style="shape=partialRectangle;html=1;whiteSpace=wrap;connectable=0;overflow=hidden;top=1;left=1;bottom=1;right=1;pointerEvents=1;fontSize=14;fillColor=#f5f5f5;fontColor=#333333;strokeColor=#666666;align=center;shadow=1;" vertex="1" parent="ipOgySFa7JEfcmdgoLGL-116">
          <mxGeometry x="70" width="20" height="20" as="geometry">
            <mxRectangle width="20" height="20" as="alternateBounds" />
          </mxGeometry>
        </mxCell>
        <mxCell id="ipOgySFa7JEfcmdgoLGL-112" style="shape=tableRow;horizontal=0;startSize=0;swimlaneHead=0;swimlaneBody=0;strokeColor=#666666;top=0;left=0;bottom=0;right=0;collapsible=0;dropTarget=0;fillColor=none;points=[[0,0.5],[1,0.5]];portConstraint=eastwest;fontSize=14;fontColor=#333333;align=right;" vertex="1" parent="ipOgySFa7JEfcmdgoLGL-65">
          <mxGeometry y="180" width="90" height="20" as="geometry" />
        </mxCell>
        <mxCell id="ipOgySFa7JEfcmdgoLGL-113" value="6" style="shape=partialRectangle;html=1;whiteSpace=wrap;connectable=0;strokeColor=inherit;overflow=hidden;fillColor=none;top=0;left=0;bottom=0;right=0;pointerEvents=1;fontSize=14;fontColor=#333333;align=right;" vertex="1" parent="ipOgySFa7JEfcmdgoLGL-112">
          <mxGeometry width="20" height="20" as="geometry">
            <mxRectangle width="20" height="20" as="alternateBounds" />
          </mxGeometry>
        </mxCell>
        <mxCell id="ipOgySFa7JEfcmdgoLGL-114" value="0000" style="shape=partialRectangle;html=1;whiteSpace=wrap;connectable=0;overflow=hidden;top=1;left=1;bottom=1;right=1;pointerEvents=1;fontSize=14;fillColor=#f5f5f5;fontColor=#333333;strokeColor=#666666;align=center;autosize=0;autosizeGrid=1;shadow=1;" vertex="1" parent="ipOgySFa7JEfcmdgoLGL-112">
          <mxGeometry x="20" width="50" height="20" as="geometry">
            <mxRectangle width="50" height="20" as="alternateBounds" />
          </mxGeometry>
        </mxCell>
        <mxCell id="ipOgySFa7JEfcmdgoLGL-115" value="0" style="shape=partialRectangle;html=1;whiteSpace=wrap;connectable=0;overflow=hidden;top=1;left=1;bottom=1;right=1;pointerEvents=1;fontSize=14;fillColor=#f5f5f5;fontColor=#333333;strokeColor=#666666;align=center;shadow=1;" vertex="1" parent="ipOgySFa7JEfcmdgoLGL-112">
          <mxGeometry x="70" width="20" height="20" as="geometry">
            <mxRectangle width="20" height="20" as="alternateBounds" />
          </mxGeometry>
        </mxCell>
        <mxCell id="ipOgySFa7JEfcmdgoLGL-108" style="shape=tableRow;horizontal=0;startSize=0;swimlaneHead=0;swimlaneBody=0;strokeColor=#666666;top=0;left=0;bottom=0;right=0;collapsible=0;dropTarget=0;fillColor=none;points=[[0,0.5],[1,0.5]];portConstraint=eastwest;fontSize=14;fontColor=#333333;align=right;" vertex="1" parent="ipOgySFa7JEfcmdgoLGL-65">
          <mxGeometry y="200" width="90" height="20" as="geometry" />
        </mxCell>
        <mxCell id="ipOgySFa7JEfcmdgoLGL-109" value="5" style="shape=partialRectangle;html=1;whiteSpace=wrap;connectable=0;strokeColor=inherit;overflow=hidden;fillColor=none;top=0;left=0;bottom=0;right=0;pointerEvents=1;fontSize=14;fontColor=#333333;align=right;" vertex="1" parent="ipOgySFa7JEfcmdgoLGL-108">
          <mxGeometry width="20" height="20" as="geometry">
            <mxRectangle width="20" height="20" as="alternateBounds" />
          </mxGeometry>
        </mxCell>
        <mxCell id="ipOgySFa7JEfcmdgoLGL-110" value="0100" style="shape=partialRectangle;html=1;whiteSpace=wrap;connectable=0;overflow=hidden;top=1;left=1;bottom=1;right=1;pointerEvents=1;fontSize=14;fillColor=#f5f5f5;fontColor=#333333;strokeColor=#666666;align=center;autosize=0;autosizeGrid=1;shadow=1;" vertex="1" parent="ipOgySFa7JEfcmdgoLGL-108">
          <mxGeometry x="20" width="50" height="20" as="geometry">
            <mxRectangle width="50" height="20" as="alternateBounds" />
          </mxGeometry>
        </mxCell>
        <mxCell id="ipOgySFa7JEfcmdgoLGL-111" value="1" style="shape=partialRectangle;html=1;whiteSpace=wrap;connectable=0;overflow=hidden;top=1;left=1;bottom=1;right=1;pointerEvents=1;fontSize=14;fillColor=#f5f5f5;fontColor=#333333;strokeColor=#666666;align=center;shadow=1;" vertex="1" parent="ipOgySFa7JEfcmdgoLGL-108">
          <mxGeometry x="70" width="20" height="20" as="geometry">
            <mxRectangle width="20" height="20" as="alternateBounds" />
          </mxGeometry>
        </mxCell>
        <mxCell id="ipOgySFa7JEfcmdgoLGL-104" style="shape=tableRow;horizontal=0;startSize=0;swimlaneHead=0;swimlaneBody=0;strokeColor=#666666;top=0;left=0;bottom=0;right=0;collapsible=0;dropTarget=0;fillColor=none;points=[[0,0.5],[1,0.5]];portConstraint=eastwest;fontSize=14;fontColor=#333333;align=right;" vertex="1" parent="ipOgySFa7JEfcmdgoLGL-65">
          <mxGeometry y="220" width="90" height="20" as="geometry" />
        </mxCell>
        <mxCell id="ipOgySFa7JEfcmdgoLGL-105" value="4" style="shape=partialRectangle;html=1;whiteSpace=wrap;connectable=0;strokeColor=inherit;overflow=hidden;fillColor=none;top=0;left=0;bottom=0;right=0;pointerEvents=1;fontSize=14;fontColor=#333333;align=right;" vertex="1" parent="ipOgySFa7JEfcmdgoLGL-104">
          <mxGeometry width="20" height="20" as="geometry">
            <mxRectangle width="20" height="20" as="alternateBounds" />
          </mxGeometry>
        </mxCell>
        <mxCell id="ipOgySFa7JEfcmdgoLGL-106" value="1001" style="shape=partialRectangle;html=1;whiteSpace=wrap;connectable=0;overflow=hidden;top=1;left=1;bottom=1;right=1;pointerEvents=1;fontSize=14;fillColor=#f5f5f5;fontColor=#333333;strokeColor=#666666;align=center;autosize=0;autosizeGrid=1;shadow=1;" vertex="1" parent="ipOgySFa7JEfcmdgoLGL-104">
          <mxGeometry x="20" width="50" height="20" as="geometry">
            <mxRectangle width="50" height="20" as="alternateBounds" />
          </mxGeometry>
        </mxCell>
        <mxCell id="ipOgySFa7JEfcmdgoLGL-107" value="1" style="shape=partialRectangle;html=1;whiteSpace=wrap;connectable=0;overflow=hidden;top=1;left=1;bottom=1;right=1;pointerEvents=1;fontSize=14;fillColor=#f5f5f5;fontColor=#333333;strokeColor=#666666;align=center;shadow=1;" vertex="1" parent="ipOgySFa7JEfcmdgoLGL-104">
          <mxGeometry x="70" width="20" height="20" as="geometry">
            <mxRectangle width="20" height="20" as="alternateBounds" />
          </mxGeometry>
        </mxCell>
        <mxCell id="ipOgySFa7JEfcmdgoLGL-100" style="shape=tableRow;horizontal=0;startSize=0;swimlaneHead=0;swimlaneBody=0;strokeColor=#666666;top=0;left=0;bottom=0;right=0;collapsible=0;dropTarget=0;fillColor=none;points=[[0,0.5],[1,0.5]];portConstraint=eastwest;fontSize=14;fontColor=#333333;align=right;" vertex="1" parent="ipOgySFa7JEfcmdgoLGL-65">
          <mxGeometry y="240" width="90" height="20" as="geometry" />
        </mxCell>
        <mxCell id="ipOgySFa7JEfcmdgoLGL-101" value="3" style="shape=partialRectangle;html=1;whiteSpace=wrap;connectable=0;strokeColor=inherit;overflow=hidden;fillColor=none;top=0;left=0;bottom=0;right=0;pointerEvents=1;fontSize=14;fontColor=#333333;align=right;" vertex="1" parent="ipOgySFa7JEfcmdgoLGL-100">
          <mxGeometry width="20" height="20" as="geometry">
            <mxRectangle width="20" height="20" as="alternateBounds" />
          </mxGeometry>
        </mxCell>
        <mxCell id="ipOgySFa7JEfcmdgoLGL-102" value="1010" style="shape=partialRectangle;html=1;whiteSpace=wrap;connectable=0;overflow=hidden;top=1;left=1;bottom=1;right=1;pointerEvents=1;fontSize=14;fillColor=#f5f5f5;fontColor=#333333;strokeColor=#666666;align=center;autosize=0;autosizeGrid=1;shadow=1;" vertex="1" parent="ipOgySFa7JEfcmdgoLGL-100">
          <mxGeometry x="20" width="50" height="20" as="geometry">
            <mxRectangle width="50" height="20" as="alternateBounds" />
          </mxGeometry>
        </mxCell>
        <mxCell id="ipOgySFa7JEfcmdgoLGL-103" value="1" style="shape=partialRectangle;html=1;whiteSpace=wrap;connectable=0;overflow=hidden;top=1;left=1;bottom=1;right=1;pointerEvents=1;fontSize=14;fillColor=#f5f5f5;fontColor=#333333;strokeColor=#666666;align=center;shadow=1;" vertex="1" parent="ipOgySFa7JEfcmdgoLGL-100">
          <mxGeometry x="70" width="20" height="20" as="geometry">
            <mxRectangle width="20" height="20" as="alternateBounds" />
          </mxGeometry>
        </mxCell>
        <mxCell id="ipOgySFa7JEfcmdgoLGL-96" style="shape=tableRow;horizontal=0;startSize=0;swimlaneHead=0;swimlaneBody=0;strokeColor=#666666;top=0;left=0;bottom=0;right=0;collapsible=0;dropTarget=0;fillColor=none;points=[[0,0.5],[1,0.5]];portConstraint=eastwest;fontSize=14;fontColor=#333333;align=right;" vertex="1" parent="ipOgySFa7JEfcmdgoLGL-65">
          <mxGeometry y="260" width="90" height="20" as="geometry" />
        </mxCell>
        <mxCell id="ipOgySFa7JEfcmdgoLGL-97" value="2" style="shape=partialRectangle;html=1;whiteSpace=wrap;connectable=0;strokeColor=inherit;overflow=hidden;fillColor=none;top=0;left=0;bottom=0;right=0;pointerEvents=1;fontSize=14;fontColor=#333333;align=right;" vertex="1" parent="ipOgySFa7JEfcmdgoLGL-96">
          <mxGeometry width="20" height="20" as="geometry">
            <mxRectangle width="20" height="20" as="alternateBounds" />
          </mxGeometry>
        </mxCell>
        <mxCell id="ipOgySFa7JEfcmdgoLGL-98" value="1011" style="shape=partialRectangle;html=1;whiteSpace=wrap;connectable=0;overflow=hidden;top=1;left=1;bottom=1;right=1;pointerEvents=1;fontSize=14;fillColor=#f5f5f5;fontColor=#333333;strokeColor=#666666;align=center;autosize=0;autosizeGrid=1;shadow=1;" vertex="1" parent="ipOgySFa7JEfcmdgoLGL-96">
          <mxGeometry x="20" width="50" height="20" as="geometry">
            <mxRectangle width="50" height="20" as="alternateBounds" />
          </mxGeometry>
        </mxCell>
        <mxCell id="ipOgySFa7JEfcmdgoLGL-99" value="1" style="shape=partialRectangle;html=1;whiteSpace=wrap;connectable=0;overflow=hidden;top=1;left=1;bottom=1;right=1;pointerEvents=1;fontSize=14;fillColor=#f5f5f5;fontColor=#333333;strokeColor=#666666;align=center;shadow=1;" vertex="1" parent="ipOgySFa7JEfcmdgoLGL-96">
          <mxGeometry x="70" width="20" height="20" as="geometry">
            <mxRectangle width="20" height="20" as="alternateBounds" />
          </mxGeometry>
        </mxCell>
        <mxCell id="ipOgySFa7JEfcmdgoLGL-92" style="shape=tableRow;horizontal=0;startSize=0;swimlaneHead=0;swimlaneBody=0;strokeColor=#666666;top=0;left=0;bottom=0;right=0;collapsible=0;dropTarget=0;fillColor=none;points=[[0,0.5],[1,0.5]];portConstraint=eastwest;fontSize=14;fontColor=#333333;align=right;" vertex="1" parent="ipOgySFa7JEfcmdgoLGL-65">
          <mxGeometry y="280" width="90" height="20" as="geometry" />
        </mxCell>
        <mxCell id="ipOgySFa7JEfcmdgoLGL-93" value="1" style="shape=partialRectangle;html=1;whiteSpace=wrap;connectable=0;strokeColor=inherit;overflow=hidden;fillColor=none;top=0;left=0;bottom=0;right=0;pointerEvents=1;fontSize=14;fontColor=#333333;align=right;" vertex="1" parent="ipOgySFa7JEfcmdgoLGL-92">
          <mxGeometry width="20" height="20" as="geometry">
            <mxRectangle width="20" height="20" as="alternateBounds" />
          </mxGeometry>
        </mxCell>
        <mxCell id="ipOgySFa7JEfcmdgoLGL-94" value="0000" style="shape=partialRectangle;html=1;whiteSpace=wrap;connectable=0;overflow=hidden;top=1;left=1;bottom=1;right=1;pointerEvents=1;fontSize=14;fillColor=#f5f5f5;fontColor=#333333;strokeColor=#666666;align=center;autosize=0;autosizeGrid=1;shadow=1;" vertex="1" parent="ipOgySFa7JEfcmdgoLGL-92">
          <mxGeometry x="20" width="50" height="20" as="geometry">
            <mxRectangle width="50" height="20" as="alternateBounds" />
          </mxGeometry>
        </mxCell>
        <mxCell id="ipOgySFa7JEfcmdgoLGL-95" value="0" style="shape=partialRectangle;html=1;whiteSpace=wrap;connectable=0;overflow=hidden;top=1;left=1;bottom=1;right=1;pointerEvents=1;fontSize=14;fillColor=#f5f5f5;fontColor=#333333;strokeColor=#666666;align=center;shadow=1;" vertex="1" parent="ipOgySFa7JEfcmdgoLGL-92">
          <mxGeometry x="70" width="20" height="20" as="geometry">
            <mxRectangle width="20" height="20" as="alternateBounds" />
          </mxGeometry>
        </mxCell>
        <mxCell id="ipOgySFa7JEfcmdgoLGL-88" style="shape=tableRow;horizontal=0;startSize=0;swimlaneHead=0;swimlaneBody=0;strokeColor=#666666;top=0;left=0;bottom=0;right=0;collapsible=0;dropTarget=0;fillColor=none;points=[[0,0.5],[1,0.5]];portConstraint=eastwest;fontSize=14;fontColor=#333333;align=right;" vertex="1" parent="ipOgySFa7JEfcmdgoLGL-65">
          <mxGeometry y="300" width="90" height="20" as="geometry" />
        </mxCell>
        <mxCell id="ipOgySFa7JEfcmdgoLGL-89" value="0" style="shape=partialRectangle;html=1;whiteSpace=wrap;connectable=0;strokeColor=inherit;overflow=hidden;fillColor=none;top=0;left=0;bottom=0;right=0;pointerEvents=1;fontSize=14;fontColor=#333333;align=right;" vertex="1" parent="ipOgySFa7JEfcmdgoLGL-88">
          <mxGeometry width="20" height="20" as="geometry">
            <mxRectangle width="20" height="20" as="alternateBounds" />
          </mxGeometry>
        </mxCell>
        <mxCell id="ipOgySFa7JEfcmdgoLGL-90" value="0000" style="shape=partialRectangle;html=1;whiteSpace=wrap;connectable=0;overflow=hidden;top=1;left=1;bottom=1;right=1;pointerEvents=1;fontSize=14;fillColor=#f5f5f5;fontColor=#333333;strokeColor=#666666;align=center;autosize=0;autosizeGrid=1;shadow=1;" vertex="1" parent="ipOgySFa7JEfcmdgoLGL-88">
          <mxGeometry x="20" width="50" height="20" as="geometry">
            <mxRectangle width="50" height="20" as="alternateBounds" />
          </mxGeometry>
        </mxCell>
        <mxCell id="ipOgySFa7JEfcmdgoLGL-91" value="0" style="shape=partialRectangle;html=1;whiteSpace=wrap;connectable=0;overflow=hidden;top=1;left=1;bottom=1;right=1;pointerEvents=1;fontSize=14;fillColor=#f5f5f5;fontColor=#333333;strokeColor=#666666;align=center;shadow=1;" vertex="1" parent="ipOgySFa7JEfcmdgoLGL-88">
          <mxGeometry x="70" width="20" height="20" as="geometry">
            <mxRectangle width="20" height="20" as="alternateBounds" />
          </mxGeometry>
        </mxCell>
        <mxCell id="ipOgySFa7JEfcmdgoLGL-150" value="" style="endArrow=classic;html=1;rounded=0;endSize=5;targetPerimeterSpacing=10;fillColor=#f5f5f5;strokeColor=#666666;exitX=0.1;exitY=0.5;exitDx=0;exitDy=0;exitPerimeter=0;entryX=0.1;entryY=0.5;entryDx=0;entryDy=0;entryPerimeter=0;" edge="1" parent="1" source="ipOgySFa7JEfcmdgoLGL-154" target="ipOgySFa7JEfcmdgoLGL-152">
          <mxGeometry width="50" height="50" relative="1" as="geometry">
            <mxPoint x="400" y="522" as="sourcePoint" />
            <mxPoint x="500" y="430" as="targetPoint" />
          </mxGeometry>
        </mxCell>
        <mxCell id="ipOgySFa7JEfcmdgoLGL-194" value="Les 12 bits de décalage&amp;nbsp;&lt;div&gt;&lt;span style=&quot;background-color: light-dark(#ffffff, var(--ge-dark-color, #121212)); color: light-dark(rgb(0, 0, 0), rgb(255, 255, 255));&quot;&gt;sont directement&amp;nbsp;&lt;/span&gt;&lt;span style=&quot;background-color: light-dark(#ffffff, var(--ge-dark-color, #121212)); color: light-dark(rgb(0, 0, 0), rgb(255, 255, 255));&quot;&gt;reportés&lt;/span&gt;&lt;/div&gt;&lt;div&gt;&lt;span style=&quot;background-color: light-dark(#ffffff, var(--ge-dark-color, #121212)); color: light-dark(rgb(0, 0, 0), rgb(255, 255, 255));&quot;&gt;&amp;nbsp;dans l&#39;addresse physique&lt;/span&gt;&lt;/div&gt;" style="edgeLabel;html=1;align=center;verticalAlign=middle;resizable=0;points=[];" vertex="1" connectable="0" parent="ipOgySFa7JEfcmdgoLGL-150">
          <mxGeometry x="0.1127" y="-2" relative="1" as="geometry">
            <mxPoint x="82" y="-32" as="offset" />
          </mxGeometry>
        </mxCell>
        <mxCell id="ipOgySFa7JEfcmdgoLGL-152" value="" style="shape=curlyBracket;whiteSpace=wrap;html=1;rounded=1;flipH=1;labelPosition=right;verticalLabelPosition=middle;align=left;verticalAlign=middle;rotation=-90;fillColor=#f5f5f5;fontColor=#333333;strokeColor=#666666;shadow=1;swimlaneLine=0;" vertex="1" parent="1">
          <mxGeometry x="390" y="410" width="20" height="240" as="geometry" />
        </mxCell>
        <mxCell id="ipOgySFa7JEfcmdgoLGL-154" value="" style="shape=curlyBracket;whiteSpace=wrap;html=1;rounded=1;flipH=1;labelPosition=right;verticalLabelPosition=middle;align=left;verticalAlign=middle;rotation=90;fillColor=#f5f5f5;fontColor=#333333;strokeColor=#666666;" vertex="1" parent="1">
          <mxGeometry x="390" y="-10" width="20" height="240" as="geometry" />
        </mxCell>
        <mxCell id="ipOgySFa7JEfcmdgoLGL-171" value="" style="shape=table;startSize=0;container=1;collapsible=0;childLayout=tableLayout;fontSize=14;shadow=1;swimlaneLine=0;" vertex="1" parent="1">
          <mxGeometry x="200" y="80" width="320" height="20" as="geometry" />
        </mxCell>
        <mxCell id="ipOgySFa7JEfcmdgoLGL-172" value="" style="shape=tableRow;horizontal=0;startSize=0;swimlaneHead=0;swimlaneBody=0;strokeColor=#666666;top=0;left=0;bottom=0;right=0;collapsible=0;dropTarget=0;fillColor=#f5f5f5;points=[[0,0.5],[1,0.5]];portConstraint=eastwest;fontSize=14;fontColor=#333333;" vertex="1" parent="ipOgySFa7JEfcmdgoLGL-171">
          <mxGeometry width="320" height="20" as="geometry" />
        </mxCell>
        <mxCell id="ipOgySFa7JEfcmdgoLGL-173" value="0" style="shape=partialRectangle;html=1;whiteSpace=wrap;connectable=0;strokeColor=inherit;overflow=hidden;fillColor=none;top=1;left=1;bottom=1;right=1;pointerEvents=1;fontSize=14;" vertex="1" parent="ipOgySFa7JEfcmdgoLGL-172">
          <mxGeometry width="20" height="20" as="geometry">
            <mxRectangle width="20" height="20" as="alternateBounds" />
          </mxGeometry>
        </mxCell>
        <mxCell id="ipOgySFa7JEfcmdgoLGL-174" value="0" style="shape=partialRectangle;html=1;whiteSpace=wrap;connectable=0;strokeColor=inherit;overflow=hidden;fillColor=none;top=1;left=1;bottom=1;right=1;pointerEvents=1;fontSize=14;" vertex="1" parent="ipOgySFa7JEfcmdgoLGL-172">
          <mxGeometry x="20" width="20" height="20" as="geometry">
            <mxRectangle width="20" height="20" as="alternateBounds" />
          </mxGeometry>
        </mxCell>
        <mxCell id="ipOgySFa7JEfcmdgoLGL-175" value="1" style="shape=partialRectangle;html=1;whiteSpace=wrap;connectable=0;strokeColor=inherit;overflow=hidden;fillColor=none;top=1;left=1;bottom=1;right=1;pointerEvents=1;fontSize=14;" vertex="1" parent="ipOgySFa7JEfcmdgoLGL-172">
          <mxGeometry x="40" width="20" height="20" as="geometry">
            <mxRectangle width="20" height="20" as="alternateBounds" />
          </mxGeometry>
        </mxCell>
        <mxCell id="ipOgySFa7JEfcmdgoLGL-176" value="1" style="shape=partialRectangle;html=1;whiteSpace=wrap;connectable=0;strokeColor=inherit;overflow=hidden;fillColor=none;top=1;left=1;bottom=1;right=1;pointerEvents=1;fontSize=14;" vertex="1" parent="ipOgySFa7JEfcmdgoLGL-172">
          <mxGeometry x="60" width="20" height="20" as="geometry">
            <mxRectangle width="20" height="20" as="alternateBounds" />
          </mxGeometry>
        </mxCell>
        <mxCell id="ipOgySFa7JEfcmdgoLGL-177" value="0" style="shape=partialRectangle;html=1;whiteSpace=wrap;connectable=0;strokeColor=inherit;overflow=hidden;fillColor=none;top=1;left=1;bottom=1;right=1;pointerEvents=1;fontSize=14;" vertex="1" parent="ipOgySFa7JEfcmdgoLGL-172">
          <mxGeometry x="80" width="20" height="20" as="geometry">
            <mxRectangle width="20" height="20" as="alternateBounds" />
          </mxGeometry>
        </mxCell>
        <mxCell id="ipOgySFa7JEfcmdgoLGL-178" value="1" style="shape=partialRectangle;html=1;whiteSpace=wrap;connectable=0;strokeColor=inherit;overflow=hidden;fillColor=none;top=1;left=1;bottom=1;right=1;pointerEvents=1;fontSize=14;" vertex="1" parent="ipOgySFa7JEfcmdgoLGL-172">
          <mxGeometry x="100" width="20" height="20" as="geometry">
            <mxRectangle width="20" height="20" as="alternateBounds" />
          </mxGeometry>
        </mxCell>
        <mxCell id="ipOgySFa7JEfcmdgoLGL-179" value="0" style="shape=partialRectangle;html=1;whiteSpace=wrap;connectable=0;strokeColor=inherit;overflow=hidden;fillColor=none;top=1;left=1;bottom=1;right=1;pointerEvents=1;fontSize=14;" vertex="1" parent="ipOgySFa7JEfcmdgoLGL-172">
          <mxGeometry x="120" width="20" height="20" as="geometry">
            <mxRectangle width="20" height="20" as="alternateBounds" />
          </mxGeometry>
        </mxCell>
        <mxCell id="ipOgySFa7JEfcmdgoLGL-180" value="0" style="shape=partialRectangle;html=1;whiteSpace=wrap;connectable=0;strokeColor=inherit;overflow=hidden;fillColor=none;top=1;left=1;bottom=1;right=1;pointerEvents=1;fontSize=14;" vertex="1" parent="ipOgySFa7JEfcmdgoLGL-172">
          <mxGeometry x="140" width="20" height="20" as="geometry">
            <mxRectangle width="20" height="20" as="alternateBounds" />
          </mxGeometry>
        </mxCell>
        <mxCell id="ipOgySFa7JEfcmdgoLGL-181" value="1" style="shape=partialRectangle;html=1;whiteSpace=wrap;connectable=0;strokeColor=inherit;overflow=hidden;fillColor=none;top=1;left=1;bottom=1;right=1;pointerEvents=1;fontSize=14;" vertex="1" parent="ipOgySFa7JEfcmdgoLGL-172">
          <mxGeometry x="160" width="20" height="20" as="geometry">
            <mxRectangle width="20" height="20" as="alternateBounds" />
          </mxGeometry>
        </mxCell>
        <mxCell id="ipOgySFa7JEfcmdgoLGL-182" value="1" style="shape=partialRectangle;html=1;whiteSpace=wrap;connectable=0;strokeColor=inherit;overflow=hidden;fillColor=none;top=1;left=1;bottom=1;right=1;pointerEvents=1;fontSize=14;" vertex="1" parent="ipOgySFa7JEfcmdgoLGL-172">
          <mxGeometry x="180" width="20" height="20" as="geometry">
            <mxRectangle width="20" height="20" as="alternateBounds" />
          </mxGeometry>
        </mxCell>
        <mxCell id="ipOgySFa7JEfcmdgoLGL-183" value="0" style="shape=partialRectangle;html=1;whiteSpace=wrap;connectable=0;strokeColor=inherit;overflow=hidden;fillColor=none;top=1;left=1;bottom=1;right=1;pointerEvents=1;fontSize=14;" vertex="1" parent="ipOgySFa7JEfcmdgoLGL-172">
          <mxGeometry x="200" width="20" height="20" as="geometry">
            <mxRectangle width="20" height="20" as="alternateBounds" />
          </mxGeometry>
        </mxCell>
        <mxCell id="ipOgySFa7JEfcmdgoLGL-184" value="0" style="shape=partialRectangle;html=1;whiteSpace=wrap;connectable=0;strokeColor=inherit;overflow=hidden;fillColor=none;top=1;left=1;bottom=1;right=1;pointerEvents=1;fontSize=14;" vertex="1" parent="ipOgySFa7JEfcmdgoLGL-172">
          <mxGeometry x="220" width="20" height="20" as="geometry">
            <mxRectangle width="20" height="20" as="alternateBounds" />
          </mxGeometry>
        </mxCell>
        <mxCell id="ipOgySFa7JEfcmdgoLGL-185" value="0" style="shape=partialRectangle;html=1;whiteSpace=wrap;connectable=0;strokeColor=inherit;overflow=hidden;fillColor=none;top=1;left=1;bottom=1;right=1;pointerEvents=1;fontSize=14;" vertex="1" parent="ipOgySFa7JEfcmdgoLGL-172">
          <mxGeometry x="240" width="20" height="20" as="geometry">
            <mxRectangle width="20" height="20" as="alternateBounds" />
          </mxGeometry>
        </mxCell>
        <mxCell id="ipOgySFa7JEfcmdgoLGL-186" value="1" style="shape=partialRectangle;html=1;whiteSpace=wrap;connectable=0;strokeColor=inherit;overflow=hidden;fillColor=none;top=1;left=1;bottom=1;right=1;pointerEvents=1;fontSize=14;" vertex="1" parent="ipOgySFa7JEfcmdgoLGL-172">
          <mxGeometry x="260" width="20" height="20" as="geometry">
            <mxRectangle width="20" height="20" as="alternateBounds" />
          </mxGeometry>
        </mxCell>
        <mxCell id="ipOgySFa7JEfcmdgoLGL-187" value="1" style="shape=partialRectangle;html=1;whiteSpace=wrap;connectable=0;strokeColor=inherit;overflow=hidden;fillColor=none;top=1;left=1;bottom=1;right=1;pointerEvents=1;fontSize=14;" vertex="1" parent="ipOgySFa7JEfcmdgoLGL-172">
          <mxGeometry x="280" width="20" height="20" as="geometry">
            <mxRectangle width="20" height="20" as="alternateBounds" />
          </mxGeometry>
        </mxCell>
        <mxCell id="ipOgySFa7JEfcmdgoLGL-188" value="0" style="shape=partialRectangle;html=1;whiteSpace=wrap;connectable=0;strokeColor=inherit;overflow=hidden;fillColor=none;top=1;left=1;bottom=1;right=1;pointerEvents=1;fontSize=14;" vertex="1" parent="ipOgySFa7JEfcmdgoLGL-172">
          <mxGeometry x="300" width="20" height="20" as="geometry">
            <mxRectangle width="20" height="20" as="alternateBounds" />
          </mxGeometry>
        </mxCell>
        <mxCell id="ipOgySFa7JEfcmdgoLGL-189" value="" style="shape=curlyBracket;whiteSpace=wrap;html=1;rounded=1;flipH=1;labelPosition=right;verticalLabelPosition=middle;align=left;verticalAlign=middle;rotation=-90;fillColor=#f5f5f5;fontColor=#333333;strokeColor=#666666;shadow=1;swimlaneLine=0;" vertex="1" parent="1">
          <mxGeometry x="230" y="490" width="20" height="80" as="geometry" />
        </mxCell>
        <mxCell id="ipOgySFa7JEfcmdgoLGL-190" value="" style="shape=curlyBracket;whiteSpace=wrap;html=1;rounded=1;flipH=1;labelPosition=right;verticalLabelPosition=middle;align=left;verticalAlign=middle;rotation=90;fillColor=#f5f5f5;fontColor=#333333;strokeColor=#666666;" vertex="1" parent="1">
          <mxGeometry x="230" y="70" width="20" height="80" as="geometry" />
        </mxCell>
        <mxCell id="ipOgySFa7JEfcmdgoLGL-192" value="" style="endArrow=classic;html=1;rounded=0;exitX=0.1;exitY=0.5;exitDx=0;exitDy=0;exitPerimeter=0;entryX=0;entryY=0.5;entryDx=0;entryDy=0;edgeStyle=orthogonalEdgeStyle;fillColor=#f5f5f5;strokeColor=#666666;" edge="1" parent="1" source="ipOgySFa7JEfcmdgoLGL-190" target="ipOgySFa7JEfcmdgoLGL-100">
          <mxGeometry width="50" height="50" relative="1" as="geometry">
            <mxPoint x="320" y="340" as="sourcePoint" />
            <mxPoint x="370" y="290" as="targetPoint" />
          </mxGeometry>
        </mxCell>
        <mxCell id="ipOgySFa7JEfcmdgoLGL-196" value="La page 3 est utilisé&amp;nbsp;&lt;span style=&quot;background-color: light-dark(#ffffff, var(--ge-dark-color, #121212)); color: light-dark(rgb(0, 0, 0), rgb(255, 255, 255));&quot;&gt;comme&amp;nbsp;&lt;/span&gt;&lt;div&gt;&lt;span style=&quot;background-color: light-dark(#ffffff, var(--ge-dark-color, #121212)); color: light-dark(rgb(0, 0, 0), rgb(255, 255, 255));&quot;&gt;index dans la table&lt;/span&gt;&lt;/div&gt;" style="edgeLabel;html=1;align=center;verticalAlign=middle;resizable=0;points=[];" vertex="1" connectable="0" parent="ipOgySFa7JEfcmdgoLGL-192">
          <mxGeometry x="-0.1765" y="-1" relative="1" as="geometry">
            <mxPoint x="-81" y="3" as="offset" />
          </mxGeometry>
        </mxCell>
        <mxCell id="ipOgySFa7JEfcmdgoLGL-193" value="" style="endArrow=classic;html=1;rounded=0;exitX=1;exitY=0.5;exitDx=0;exitDy=0;edgeStyle=orthogonalEdgeStyle;fillColor=#f5f5f5;strokeColor=#666666;entryX=0.1;entryY=0.5;entryDx=0;entryDy=0;entryPerimeter=0;" edge="1" parent="1" source="ipOgySFa7JEfcmdgoLGL-100" target="ipOgySFa7JEfcmdgoLGL-189">
          <mxGeometry width="50" height="50" relative="1" as="geometry">
            <mxPoint x="320" y="340" as="sourcePoint" />
            <mxPoint x="380" y="440" as="targetPoint" />
            <Array as="points">
              <mxPoint x="370" y="420" />
              <mxPoint x="370" y="500" />
              <mxPoint x="240" y="500" />
            </Array>
          </mxGeometry>
        </mxCell>
        <mxCell id="ipOgySFa7JEfcmdgoLGL-195" value="Table&amp;nbsp;&lt;div&gt;des pages&lt;/div&gt;" style="edgeLabel;html=1;align=center;verticalAlign=middle;resizable=0;points=[];" vertex="1" connectable="0" parent="1">
          <mxGeometry x="305" y="150" as="geometry" />
        </mxCell>
        <mxCell id="ipOgySFa7JEfcmdgoLGL-198" value="Addresse virtuelle d&#39;entrée" style="edgeLabel;html=1;align=center;verticalAlign=middle;resizable=0;points=[];" vertex="1" connectable="0" parent="1">
          <mxGeometry x="210" y="70" as="geometry" />
        </mxCell>
        <mxCell id="ipOgySFa7JEfcmdgoLGL-199" value="" style="edgeStyle=elbowEdgeStyle;elbow=vertical;endArrow=classic;html=1;curved=0;rounded=0;endSize=8;startSize=8;entryX=0.5;entryY=0;entryDx=0;entryDy=0;noJump=0;" edge="1" parent="1" target="ipOgySFa7JEfcmdgoLGL-83">
          <mxGeometry width="50" height="50" relative="1" as="geometry">
            <mxPoint x="340" y="140" as="sourcePoint" />
            <mxPoint x="500" y="200" as="targetPoint" />
          </mxGeometry>
        </mxCell>
        <mxCell id="ipOgySFa7JEfcmdgoLGL-200" value="bit&amp;nbsp;&lt;span style=&quot;background-color: light-dark(#ffffff, var(--ge-dark-color, #121212)); color: light-dark(rgb(0, 0, 0), rgb(255, 255, 255));&quot;&gt;de présence&lt;/span&gt;" style="edgeLabel;html=1;align=center;verticalAlign=middle;resizable=0;points=[];" vertex="1" connectable="0" parent="ipOgySFa7JEfcmdgoLGL-199">
          <mxGeometry x="-0.6638" relative="1" as="geometry">
            <mxPoint x="20" y="-15" as="offset" />
          </mxGeometry>
        </mxCell>
      </root>
    </mxGraphModel>
  </diagram>
</mxfile>
